<?xml version="1.0" encoding="UTF-8"?>
<!DOCTYPE svg PUBLIC "-//W3C//DTD SVG 1.1//EN" "http://www.w3.org/Graphics/SVG/1.1/DTD/svg11.dtd">
<svg xmlns="http://www.w3.org/2000/svg" version="1.1" width="168px" height="54px" style="shape-rendering:geometricPrecision; text-rendering:geometricPrecision; image-rendering:optimizeQuality; fill-rule:evenodd; clip-rule:evenodd" xmlns:xlink="http://www.w3.org/1999/xlink">
<g><path style="opacity:0.997" fill="#2f3534" d="M 24.5,-0.5 C 26.8333,-0.5 29.1667,-0.5 31.5,-0.5C 32.5366,1.73752 32.7033,4.07085 32,6.5C 26.5426,6.45604 24.0426,9.12271 24.5,14.5C 18.5036,13.3327 16.0036,15.6661 17,21.5C 23.6015,21.7544 25.7682,24.9211 23.5,31C 14.2535,33.7704 14.2535,36.6038 23.5,39.5C 24.2304,41.3413 24.8971,43.1746 25.5,45C 31.3692,44.7987 33.7026,47.632 32.5,53.5C 29.8333,53.5 27.1667,53.5 24.5,53.5C 24.5479,48.1347 21.8813,45.6347 16.5,46C 16.3594,40.7598 13.6928,38.5931 8.5,39.5C 8.75642,37.2075 8.42308,35.0408 7.5,33C 4.74617,32.7276 2.0795,32.2276 -0.5,31.5C -0.5,28.8333 -0.5,26.1667 -0.5,23.5C 6.08772,24.0784 9.25439,21.0784 9,14.5C 10.7337,13.7511 12.567,13.2511 14.5,13C 15.1667,11 15.8333,9 16.5,7C 18.5,6.66667 20.5,6.33333 22.5,6C 23.2301,3.84604 23.8968,1.67937 24.5,-0.5 Z"/></g>
<g><path style="opacity:0.996" fill="#7577f9" d="M 42.5,12.5 C 44.2789,14.3435 46.6122,15.0102 49.5,14.5C 51.5307,21.136 49.1974,23.4693 42.5,21.5C 42.417,16.1397 39.7503,14.1397 34.5,15.5C 32.9629,20.5407 34.9629,23.0407 40.5,23C 41.1667,25 41.8333,27 42.5,29C 44.9803,29.96 47.4803,30.7934 50,31.5C 52.2153,37.7857 50.0486,40.619 43.5,40C 42.6957,46.209 39.3624,48.0423 33.5,45.5C 32.8333,43.8333 32.1667,42.1667 31.5,40.5C 29.2906,39.8938 27.124,39.2272 25,38.5C 23.7275,31.6821 26.3942,29.6821 33,32.5C 33.1572,37.8234 35.6572,39.4901 40.5,37.5C 41.1471,36.7261 41.4805,35.7261 41.5,34.5C 41.3601,32.9704 40.6935,31.9704 39.5,31.5C 37.8008,31.6602 36.1341,31.4935 34.5,31C 33.991,28.4303 32.991,26.0969 31.5,24C 29.236,23.7638 27.0693,23.2638 25,22.5C 24.5026,19.854 24.3359,17.1873 24.5,14.5C 26.7463,13.7904 29.0796,13.2904 31.5,13C 32.4061,11.3005 32.7394,9.4672 32.5,7.5C 35.5184,7.33537 38.5184,7.50204 41.5,8C 42.3802,9.35613 42.7135,10.8561 42.5,12.5 Z"/></g>
<g><path style="opacity:0.431" fill="#b3b4fb" d="M 42.5,12.5 C 44.9521,13.0654 47.2854,13.7321 49.5,14.5C 46.6122,15.0102 44.2789,14.3435 42.5,12.5 Z"/></g>
<g><path style="opacity:0.932" fill="#676df8" d="M 78.5,37.5 C 78.5,31.1667 78.5,24.8333 78.5,18.5C 77.209,18.2627 76.209,18.596 75.5,19.5C 75.5,25.8333 75.5,32.1667 75.5,38.5C 74.1667,38.5 72.8333,38.5 71.5,38.5C 71.5,32.1667 71.5,25.8333 71.5,19.5C 70.791,18.596 69.791,18.2627 68.5,18.5C 68.5,24.8333 68.5,31.1667 68.5,37.5C 67.4324,38.4345 66.099,38.7678 64.5,38.5C 64.3337,31.1591 64.5003,23.8258 65,16.5C 70.6667,15.1667 76.3333,15.1667 82,16.5C 82.4997,23.8258 82.6663,31.1591 82.5,38.5C 80.901,38.7678 79.5676,38.4345 78.5,37.5 Z"/></g>
<g><path style="opacity:0.94" fill="#797af9" d="M 99.5,36.5 C 99.5,34.8333 99.5,33.1667 99.5,31.5C 100.5,31.5 101.5,31.5 102.5,31.5C 102.263,32.791 102.596,33.791 103.5,34.5C 105.256,33.4479 105.923,31.7812 105.5,29.5C 103.173,29.7529 101.173,29.0863 99.5,27.5C 95.7875,18.039 98.7875,14.2057 108.5,16C 109.406,17.6995 109.739,19.5328 109.5,21.5C 107.508,21.6715 105.842,21.0049 104.5,19.5C 103.548,21.0453 103.215,22.712 103.5,24.5C 106.044,24.1043 108.211,24.771 110,26.5C 110.956,30.572 110.456,34.4054 108.5,38C 105.833,38.6667 103.167,38.6667 100.5,38C 99.944,37.6174 99.6107,37.1174 99.5,36.5 Z"/></g>
<g><path style="opacity:0.94" fill="#7175f8" d="M 127.5,15.5 C 131.106,15.2108 134.606,15.5442 138,16.5C 138.667,23.1667 138.667,29.8333 138,36.5C 134.333,39.1667 130.667,39.1667 127,36.5C 126.24,29.4505 126.407,22.4505 127.5,15.5 Z M 133.5,34.5 C 132.833,34.5 132.167,34.5 131.5,34.5C 132.167,14.5 132.833,14.5 133.5,34.5 Z"/></g>
<g><path style="opacity:0.921" fill="#6f72f9" d="M 142.5,15.5 C 145.777,15.2161 148.943,15.5495 152,16.5C 152.167,20 152.333,23.5 152.5,27C 154.715,36.2885 151.382,39.9552 142.5,38C 141.874,37.2496 141.374,36.4162 141,35.5C 139.962,28.6285 140.462,21.9618 142.5,15.5 Z M 145.5,19.5 C 147.442,24.0557 148.108,29.0557 147.5,34.5C 145.558,29.9443 144.892,24.9443 145.5,19.5 Z"/></g>
<g><path style="opacity:0.94" fill="#6169f8" d="M 89.5,34.5 C 90.1667,34.5 90.8333,34.5 91.5,34.5C 92.4896,28.69 92.8229,22.69 92.5,16.5C 93.5,16.5 94.5,16.5 95.5,16.5C 95.5,23.1667 95.5,29.8333 95.5,36.5C 95.3893,37.1174 95.056,37.6174 94.5,38C 91.8333,38.6667 89.1667,38.6667 86.5,38C 85.7476,37.3292 85.4142,36.4959 85.5,35.5C 85.5,29.1667 85.5,22.8333 85.5,16.5C 86.5,16.5 87.5,16.5 88.5,16.5C 88.1771,22.69 88.5104,28.69 89.5,34.5 Z"/></g>
<g><path style="opacity:0.71" fill="#a0a2fa" d="M 89.5,34.5 C 88.5104,28.69 88.1771,22.69 88.5,16.5C 87.5,16.5 86.5,16.5 85.5,16.5C 85.5,22.8333 85.5,29.1667 85.5,35.5C 84.5093,29.021 84.176,22.3543 84.5,15.5C 86.1667,15.5 87.8333,15.5 89.5,15.5C 89.5,21.8333 89.5,28.1667 89.5,34.5 Z"/></g>
<g><path style="opacity:0.692" fill="#949afa" d="M 95.5,36.5 C 95.5,29.8333 95.5,23.1667 95.5,16.5C 94.5,16.5 93.5,16.5 92.5,16.5C 92.8229,22.69 92.4896,28.69 91.5,34.5C 91.5,28.1667 91.5,21.8333 91.5,15.5C 93.1667,15.5 94.8333,15.5 96.5,15.5C 96.8245,22.6866 96.4912,29.6866 95.5,36.5 Z"/></g>
<g><path style="opacity:0.943" fill="#656bf8" d="M 116.5,15.5 C 116.5,18.8333 116.5,22.1667 116.5,25.5C 117.833,25.5 119.167,25.5 120.5,25.5C 120.5,22.5 120.5,19.5 120.5,16.5C 121.5,16.5 122.5,16.5 123.5,16.5C 123.5,23.5 123.5,30.5 123.5,37.5C 122.5,37.5 121.5,37.5 120.5,37.5C 120.806,34.6146 120.473,31.9479 119.5,29.5C 117.78,31.6581 116.947,34.3248 117,37.5C 115.644,38.3802 114.144,38.7135 112.5,38.5C 112.5,30.8333 112.5,23.1667 112.5,15.5C 113.833,15.5 115.167,15.5 116.5,15.5 Z"/></g>
<g><path style="opacity:0.447" fill="#afb4fb" d="M 116.5,15.5 C 117.166,18.3583 117.833,21.3583 118.5,24.5C 119.484,21.5719 119.817,18.5719 119.5,15.5C 121.167,15.5 122.833,15.5 124.5,15.5C 124.5,23.1667 124.5,30.8333 124.5,38.5C 122.833,38.5 121.167,38.5 119.5,38.5C 119.5,35.5 119.5,32.5 119.5,29.5C 120.473,31.9479 120.806,34.6146 120.5,37.5C 121.5,37.5 122.5,37.5 123.5,37.5C 123.5,30.5 123.5,23.5 123.5,16.5C 122.5,16.5 121.5,16.5 120.5,16.5C 120.5,19.5 120.5,22.5 120.5,25.5C 119.167,25.5 117.833,25.5 116.5,25.5C 116.5,22.1667 116.5,18.8333 116.5,15.5 Z"/></g>
<g><path style="opacity:0.912" fill="#7073f9" d="M 167.5,18.5 C 167.5,23.8333 167.5,29.1667 167.5,34.5C 166.596,35.209 166.263,36.209 166.5,37.5C 162.881,38.2436 159.215,38.577 155.5,38.5C 155.5,30.8333 155.5,23.1667 155.5,15.5C 158.85,15.335 162.183,15.5017 165.5,16C 166.066,16.9947 166.733,17.828 167.5,18.5 Z M 162.5,19.5 C 162.666,24.1785 162.499,28.8452 162,33.5C 161.617,34.056 161.117,34.3893 160.5,34.5C 159.892,29.0557 160.558,24.0557 162.5,19.5 Z"/></g>
<g><path style="opacity:0.191" fill="#ced1fc" d="M 71.5,19.5 C 69.8526,25.2645 68.8526,31.2645 68.5,37.5C 68.5,31.1667 68.5,24.8333 68.5,18.5C 69.791,18.2627 70.791,18.596 71.5,19.5 Z"/></g>
<g><path style="opacity:0.201" fill="#ced1fc" d="M 75.5,19.5 C 76.209,18.596 77.209,18.2627 78.5,18.5C 78.5,24.8333 78.5,31.1667 78.5,37.5C 78.1474,31.2645 77.1474,25.2645 75.5,19.5 Z"/></g>
<g><path style="opacity:0.428" fill="#acb1fb" d="M 133.5,34.5 C 132.833,14.5 132.167,14.5 131.5,34.5C 130.512,29.3595 130.179,24.0262 130.5,18.5C 131.833,18.5 133.167,18.5 134.5,18.5C 134.821,24.0262 134.488,29.3595 133.5,34.5 Z M 133.5,34.5 C 132.833,34.5 132.167,34.5 131.5,34.5C 132.167,14.5 132.833,14.5 133.5,34.5 Z"/></g>
<g><path style="opacity:0.192" fill="#d3d6fc" d="M 145.5,19.5 C 146.209,18.596 147.209,18.2627 148.5,18.5C 148.821,24.0262 148.488,29.3595 147.5,34.5C 148.108,29.0557 147.442,24.0557 145.5,19.5 Z"/></g>
<g><path style="opacity:0.214" fill="#ced1fc" d="M 162.5,19.5 C 160.558,24.0557 159.892,29.0557 160.5,34.5C 159.512,29.3595 159.179,24.0262 159.5,18.5C 160.791,18.2627 161.791,18.596 162.5,19.5 Z"/></g>
<g><path style="opacity:0.979" fill="#363b3a" d="M 51.5,23.5 C 57.1132,22.079 59.2799,24.079 58,29.5C 51.423,32.0878 49.2563,30.0878 51.5,23.5 Z"/></g>
<g><path style="opacity:0.213" fill="#cbcefc" d="M 103.5,34.5 C 102.596,33.791 102.263,32.791 102.5,31.5C 101.5,31.5 100.5,31.5 99.5,31.5C 99.5,33.1667 99.5,34.8333 99.5,36.5C 98.5386,34.7354 98.2053,32.7354 98.5,30.5C 100.167,30.5 101.833,30.5 103.5,30.5C 103.5,31.8333 103.5,33.1667 103.5,34.5 Z"/></g>
<g><path style="opacity:0.216" fill="#b5b6fb" d="M 39.5,31.5 C 40.6935,31.9704 41.3601,32.9704 41.5,34.5C 41.4805,35.7261 41.1471,36.7261 40.5,37.5C 40.6747,35.3792 40.3414,33.3792 39.5,31.5 Z"/></g>
</svg>
